# xmcd
#
# Track frame offsets: 
#        182
#        14097
#        28180
#        37780
#        50105
#        62215
#        76995
#        87307
#        100147
#        112712
#        122815
#        136477
#
# Disc length: 1973 seconds
#
# Revision: 3
# Processed by: cddbd v1.5.1PL0 Copyright (c) Steve Scherf et al.
# Submitted via: ExactAudioCopy v0.95a4
#
DISCID=9d07b30c
DTITLE=Albert Collins - Truckin' With Albert Collins
DYEAR=1969
DGENRE=Blues
TTITLE0=Frosty
TTITLE1=Hot 'N Cold
TTITLE2=Frostbite
TTITLE3=Tremble
TTITLE4=Thaw Out
TTITLE5=Dyin' Flu
TTITLE6=Don't Lose Your Cool
TTITLE7=Backstroke
TTITLE8=Kool Aide
TTITLE9=Shiver 'N Shake
TTITLE10=Icy Blue
TTITLE11=Snow-Cone II
EXTD=MCAD 10423
EXTT0=
EXTT1=
EXTT2=
EXTT3=
EXTT4=
EXTT5=
EXTT6=
EXTT7=
EXTT8=
EXTT9=
EXTT10=
EXTT11=
PLAYORDER=
